# xmcd
#
# Track frame offsets:
#	150
#	19134
#	29181
#	41132
#	51634
#	67012
#	77067
#	99914
#	114764
#	124133
#	139292
#	149823
#	160407
#	173231
#	190246
#	205528
#	216274
#	236636
#	249374
#	263348
#	278733
#	300488
#	314840
#	329592
#	342057
#
# Disc length: 4807 seconds
#
# Revision: 2
# Processed by: cddbd v1.5.2PL0 Copyright (c) Steve Scherf et al.
# Submitted via: EasyCDDAExtractor 8.2.3.1
#
DISCID=7f12c519
DTITLE=J.J.CALE - The Best Of  CD-2
DYEAR=2005
DGENRE=Blues
TTITLE0=Friday
TTITLE1=Cajun Moon
TTITLE2=A Thing Going On
TTITLE3=Teardrops In My Tequila
TTITLE4=Homeless
TTITLE5=Don't Cry Sister
TTITLE6=Slower Baby
TTITLE7=You Got Me On So Bad
TTITLE8=Mississippi River
TTITLE9=Day's Go By
TTITLE10=Carry On
TTITLE11=I'll Be There (If You Ever Want Me)
TTITLE12=City Girls
TTITLE13=Rio
TTITLE14=Wish I Had Not Said That
TTITLE15=Katy Kool Lady
TTITLE16=The Problem
TTITLE17=Cocaine
TTITLE18=River Boat Song
TTITLE19=Magnolia
TTITLE20=Fancy Dance
TTITLE21=Don't Wait
TTITLE22=Cherry
TTITLE23=Boilin' Pot
TTITLE24=Blues for Mama
EXTD=
EXTT0=
EXTT1=
EXTT2=
EXTT3=
EXTT4=
EXTT5=
EXTT6=
EXTT7=
EXTT8=
EXTT9=
EXTT10=
EXTT11=
EXTT12=
EXTT13=
EXTT14=
EXTT15=
EXTT16=
EXTT17=
EXTT18=
EXTT19=
EXTT20=
EXTT21=
EXTT22=
EXTT23=
EXTT24=
PLAYORDER=
